<?xml version="1.0" encoding="utf-8"?>
<!-- Generator: Adobe Illustrator 19.0.0, SVG Export Plug-In . SVG Version: 6.00 Build 0)  -->
<svg version="1.1" id="Layer_1" xmlns="http://www.w3.org/2000/svg" xmlns:xlink="http://www.w3.org/1999/xlink" x="0px" y="0px"
	 viewBox="281.8 -104 774.1 801.8" style="enable-background:new 281.8 -104 774.1 801.8;" xml:space="preserve">
<style type="text/css">
	.st0{fill:none;stroke:#579AA3;stroke-width:6;stroke-miterlimit:10;}
	.st1{fill:#579AA3;}
	.st2{fill:none;stroke:#2F3140;stroke-width:8;stroke-linecap:round;stroke-linejoin:round;stroke-miterlimit:10;}
	.st3{fill:#2F3140;}
	.st4{fill:#D8D8D8;stroke:#5E5E5E;stroke-width:6;stroke-miterlimit:10;}
	.st5{fill:#7C7C94;}
	.st6{fill:none;stroke:#2F3140;stroke-width:3;stroke-linecap:round;stroke-linejoin:round;stroke-miterlimit:10;}
	.st7{fill:#6C6D81;}
	.st8{fill:#565864;}
	.st9{fill:none;stroke:#C06D4F;stroke-width:2;stroke-linecap:round;stroke-linejoin:round;stroke-miterlimit:10;}
	.st10{fill:#51566A;}
	.st11{fill:none;stroke:#2F3140;stroke-width:6;stroke-linecap:round;stroke-linejoin:round;stroke-miterlimit:10;}
	.st12{fill:#9093A2;}
	.st13{fill:#3C4155;}
	.st14{fill:#3B4254;}
</style>
<path id="XMLID_27_" class="st0" d="M673,190.4c0,0,0-32.7,0-58.3c0-16.6-13.4-30-30-30H480c-16.6,0-30-13.4-30-30l0,0
	c0-16.6,13.4-30,30-30h286.4c16.6,0,30-13.4,30-30l0,0c0-16.6-13.4-30-30-30H703c-16.6,0-30-13.4-30-30c0-17.6,0-36.3,0-36.3"/>
<path id="XMLID_39_" class="st1" d="M682.8,203.4h-21.7c-1.6,0-2.8-1.3-2.8-2.8v-2.5c0-1.6,1.3-2.8,2.8-2.8h21.7
	c1.6,0,2.8,1.3,2.8,2.8v2.5C685.7,202.1,684.4,203.4,682.8,203.4z"/>
<path id="XMLID_38_" class="st1" d="M682.4,190.6h-20.8c-1.8,0-3.3-1.5-3.3-3.3v-1.7c0-1.8,1.5-3.3,3.3-3.3h20.8
	c1.8,0,3.3,1.5,3.3,3.3v1.7C685.7,189.1,684.2,190.6,682.4,190.6z"/>
<path id="XMLID_37_" class="st1" d="M681.9,196.6h-19.8c-1.2,0-2.2-1-2.2-2.2v-2.9c0-1.2,1-2.2,2.2-2.2h19.8c1.2,0,2.3,1,2.3,2.2
	v2.9C684.2,195.6,683.2,196.6,681.9,196.6z"/>
<path id="XMLID_35_" class="st2" d="M664,182.4c0,0,0-32.7,0-58.3c0-16.6-13.4-30-30-30H471c-16.6,0-30-13.4-30-30l0,0
	c0-16.6,13.4-30,30-30h286.4c16.6,0,30-13.4,30-30l0,0c0-16.6-13.4-30-30-30H694c-16.6,0-30-13.4-30-30c0-17.6,0-36.3,0-36.3"/>
<path id="XMLID_26_" class="st3" d="M674.8,203.4h-21.7c-1.6,0-2.8-1.3-2.8-2.8v-2.5c0-1.6,1.3-2.8,2.8-2.8h21.7
	c1.6,0,2.8,1.3,2.8,2.8v2.5C677.7,202.1,676.4,203.4,674.8,203.4z"/>
<path id="XMLID_33_" class="st3" d="M674.4,190.6h-20.8c-1.8,0-3.3-1.5-3.3-3.3v-1.7c0-1.8,1.5-3.3,3.3-3.3h20.8
	c1.8,0,3.3,1.5,3.3,3.3v1.7C677.7,189.1,676.2,190.6,674.4,190.6z"/>
<path id="XMLID_31_" class="st3" d="M673.9,196.1h-19.8c-1.2,0-2.2-1-2.2-2.2V192c0-1.2,1-2.2,2.2-2.2h19.8c1.2,0,2.2,1,2.2,2.2v1.9
	C676.2,195.1,675.2,196.1,673.9,196.1z"/>
<path id="XMLID_36_" class="st4" d="M771.8,267.9c-1.5-3.5-3.6-6.7-5.9-9.6c-0.2-0.4-0.3-0.8-0.5-1.2c-5.6-14.4-21.8-23.4-21.8-23.4
	c-15.1-9.1-30.4-14.6-44.9-18.3c-3.8-1-7.5,1.9-7.5,5.8V239h-36v-17.8c0-3.9-3.7-6.8-7.5-5.8c-14.6,3.7-29.8,9.2-44.9,18.3
	c0,0-16.2,8.9-21.8,23.4c-5.1,13-12,35-18.3,61.4l-9.3,3c-4.9,21.1-9.3,44.7-12.1,68.5l8.7-2.7c-0.9,6.9-1.6,13.9-2.2,20.9l-8.5,2.2
	c-2.3,29.8-1.5,59,4.6,83.1l9.2,1.4c0.1,0.3,0.2,0.7,0.3,1c31.7,75.9,49.7,120.8,63.4,130c13.5,9.1,40.8,11.3,56.5,10.7
	c15.5,0.7,42.4-0.8,56.1-9.7l0,0c1.2-0.6,1.8-1.3,2.9-2c14.7-9.2,31.9-45.4,62-112.4l6-13.4l0.1-0.3
	C823,427.9,787.3,304.7,771.8,267.9z"/>
<path id="XMLID_14_" class="st5" d="M556,388.1h-11l-15,3.9c-2.3,29.8-1.5,59,4.6,83.1l29.8,4.5L556,388.1z"/>
<path id="XMLID_12_" class="st6" d="M556,388.1h-11l-15,3.9c-2.3,29.8-1.5,59,4.6,83.1l29.8,4.5L556,388.1z"/>
<path id="XMLID_15_" class="st5" d="M546.7,367.1l13-69l-15.5,5c-4.9,21.1-9.3,44.7-12.1,68.5L546.7,367.1z"/>
<path id="XMLID_24_" class="st7" d="M559,388.1h-11l-15,3.9c-2.3,29.8-1.5,59,4.6,83.1l29.8,4.5L559,388.1z"/>
<path id="XMLID_20_" class="st7" d="M549.7,367.1l13-69l-15.5,5c-4.9,21.1-9.3,44.7-12.1,68.5L549.7,367.1z"/>
<path id="XMLID_13_" class="st6" d="M546.7,367.1l13-69l-15.5,5c-4.9,21.1-9.3,44.7-12.1,68.5L546.7,367.1z"/>
<path id="XMLID_10_" class="st8" d="M762.6,249.6c-6.3-15-23.3-24.2-25.1-25.1c-5.6-3.1-11.4-5.9-17.4-8.4V609
	c1.2-0.6,2.5-1.3,3.6-2c14.7-9.2,31.2-46.1,61.4-113l6-13.4l0.1-0.3C813.8,409.6,778.1,286.5,762.6,249.6z"/>
<path id="XMLID_11_" class="st6" d="M762.6,249.6c-6.3-15-23.3-24.2-25.1-25.1c-5.6-3.1-11.4-5.9-17.4-8.4V609
	c1.2-0.6,2.5-1.3,3.6-2c14.7-9.2,31.2-46.1,61.4-113l6-13.4l0.1-0.3C813.8,409.6,778.1,286.5,762.6,249.6z"/>
<path id="XMLID_17_" class="st9" d="M654,267.1"/>
<path id="XMLID_7_" class="st10" d="M756.2,238.8c-5.6-14.4-21.8-23.4-21.8-23.4c-15.1-9.1-30.4-14.6-44.9-18.3
	c-3.8-1-7.5,1.9-7.5,5.8v17.9h-36V203c0-3.9-3.7-6.8-7.5-5.8c-14.6,3.7-29.8,9.2-44.9,18.3c0,0-16.2,8.9-21.8,23.4
	c-15.7,40.1-49,167-27.7,238.7c31.7,75.9,49.7,120.8,63.4,130c13.5,9.1,40.8,11.3,56.5,10.7c15.7,0.7,43-1.5,56.5-10.7
	c13.6-9.2,31.7-54.1,63.4-130C805.2,405.8,771.9,278.9,756.2,238.8z"/>
<path id="XMLID_34_" class="st7" d="M751.3,298.1c0-26.1-2.2-51.3-6.4-74.9c-5.5-5-10.5-7.8-10.5-7.8c-15.1-9.1-30.4-14.6-44.9-18.3
	c-3.8-1-7.5,1.9-7.5,5.8v17.9h-36V203c0-3.9-3.7-6.8-7.5-5.8c-14.6,3.7-29.8,9.2-44.9,18.3c0,0-16.2,8.9-21.8,23.4
	c-15.7,40.1-49,167-27.7,238.7c9.3,22.4,17.5,42,24.7,58.8c13.4,7.6,27.6,11.7,42.4,11.7C688.6,548,751.3,436.1,751.3,298.1z"/>
<path id="XMLID_6_" class="st11" d="M756.2,238.8c-5.6-14.4-21.8-23.4-21.8-23.4c-15.1-9.1-30.4-14.6-44.9-18.3
	c-3.8-1-7.5,1.9-7.5,5.8v17.9h-36V203c0-3.9-3.7-6.8-7.5-5.8c-14.6,3.7-29.8,9.2-44.9,18.3c0,0-16.2,8.9-21.8,23.4
	c-15.7,40.1-49,167-27.7,238.7c31.7,75.9,49.7,120.8,63.4,130c13.5,9.1,40.8,11.3,56.5,10.7c15.7,0.7,43-1.5,56.5-10.7
	c13.6-9.2,31.7-54.1,63.4-130C805.2,405.8,771.9,278.9,756.2,238.8z"/>
<path id="XMLID_8_" class="st11" d="M646,214.9v-12.1c0-3.9-3.6-6.7-7.4-5.8c-14.7,3.7-30,9.2-45.2,18.4c0,0-16.4,8.9-22,23.4
	c-9.2,23.4-24.3,76.4-31.1,130.7c-0.6,4.8,4.4,8.3,8.7,6c14.7-7.9,30.4-16.2,41.2-21.3c24.4-11.6,57.7-21.5,69.4-24.8
	c2.6-0.7,4.3-3.1,4.3-5.7v-96.9c0-3.3-2.7-5.9-5.9-5.9h-6.1C648.7,220.8,646,218.2,646,214.9z"/>
<path id="XMLID_9_" class="st11" d="M756.2,238.8c-5.6-14.4-21.8-23.4-21.8-23.4c-15.1-9.1-30.4-14.6-44.9-18.3
	c-3.8-1-7.5,1.9-7.5,5.8v17.9h-18v107.4c0,0,43.3,11.6,73.5,26c10.8,5.1,26.5,13.4,41.1,21.3c4.3,2.3,9.3-1.2,8.7-6
	C780.5,315.2,765.4,262.2,756.2,238.8z"/>
<path id="XMLID_16_" class="st5" d="M664,441.8L664,441.8c-9.9,0-18-8.1-18-18v-210c0-5.3,4.3-9.7,9.7-9.7h16.7
	c5.3,0,9.7,4.3,9.7,9.7v210C682,433.8,673.9,441.8,664,441.8z"/>
<path id="XMLID_32_" class="st12" d="M682,260.1v-46.3c0-5.3-4.3-9.7-9.7-9.7h-16.7c-5.3,0-9.7,4.3-9.7,9.7v198.8L682,260.1z"/>
<path id="XMLID_23_" class="st13" d="M671.9,376.4v-28.3c0-4.3-3.5-7.9-7.9-7.9s-7.9,3.5-7.9,7.9v28.3H671.9z"/>
<path id="XMLID_22_" class="st13" d="M671.9,384.4v28.3c0,4.3-3.5,7.9-7.9,7.9s-7.9-3.5-7.9-7.9v-28.3H671.9z"/>
<path id="XMLID_3_" class="st11" d="M664,441.8L664,441.8c-9.9,0-18-8.1-18-18V213.9c0-5.4,4.4-9.8,9.8-9.8h16.5
	c5.4,0,9.8,4.4,9.8,9.8v209.9C682,433.8,673.9,441.8,664,441.8z"/>
<path id="XMLID_5_" class="st14" d="M667.2,310.1h-6.5c-3.7,0-6.7-3-6.7-6.7v-44.5c0-3.7,3-6.7,6.7-6.7h6.5c3.7,0,6.7,3,6.7,6.7
	v44.5C674,307.1,670.9,310.1,667.2,310.1z"/>
<g id="XMLID_18_">
	<g id="XMLID_79_">
		<line id="XMLID_80_" class="st9" x1="655.1" y1="304.3" x2="672.9" y2="304.3"/>
	</g>
	<g id="XMLID_76_">
		<line id="XMLID_77_" class="st9" x1="655.1" y1="298.3" x2="672.9" y2="298.3"/>
	</g>
	<g id="XMLID_73_">
		<line id="XMLID_74_" class="st9" x1="655.1" y1="292.3" x2="672.9" y2="292.3"/>
	</g>
	<g id="XMLID_70_">
		<line id="XMLID_71_" class="st9" x1="655.1" y1="286.3" x2="672.9" y2="286.3"/>
	</g>
	<g id="XMLID_67_">
		<line id="XMLID_68_" class="st9" x1="655.1" y1="280.3" x2="672.9" y2="280.3"/>
	</g>
	<g id="XMLID_64_">
		<line id="XMLID_65_" class="st9" x1="655.1" y1="274.3" x2="672.9" y2="274.3"/>
	</g>
	<g id="XMLID_61_">
		<line id="XMLID_62_" class="st9" x1="655.1" y1="268.3" x2="672.9" y2="268.3"/>
	</g>
	<g id="XMLID_58_">
		<line id="XMLID_59_" class="st9" x1="655.1" y1="262.3" x2="672.9" y2="262.3"/>
	</g>
	<g id="XMLID_55_">
		<line id="XMLID_56_" class="st9" x1="655.1" y1="256.3" x2="672.9" y2="256.3"/>
	</g>
</g>
<g id="XMLID_19_">
	<path id="XMLID_30_" class="st6" d="M667.2,310.1c-2.2,0-4.3,0-6.5,0c-3.7,0-7-3-7.4-6.7c-1.3-14.8-1.3-29.7,0-44.5
		c0.4-3.7,3.7-6.7,7.4-6.7c2.2,0,4.3,0,6.5,0c3.7,0,7,3,7.4,6.7c1.3,14.8,1.3,29.7,0,44.5C674.3,307.1,670.9,310.1,667.2,310.1z"/>
</g>
<path id="XMLID_2_" class="st6" d="M669,310.1h-10c-2.8,0-5-2.2-5-5v-48c0-2.8,2.2-5,5-5h10c2.8,0,5,2.2,5,5v48
	C674,307.9,671.7,310.1,669,310.1z"/>
<path id="XMLID_25_" class="st6" d="M671.9,376.4v-28.3c0-4.3-3.5-7.9-7.9-7.9s-7.9,3.5-7.9,7.9v28.3H671.9z"/>
<path id="XMLID_21_" class="st6" d="M671.9,384.4v28.3c0,4.3-3.5,7.9-7.9,7.9s-7.9-3.5-7.9-7.9v-28.3H671.9z"/>
</svg>
