<?xml version="1.0" encoding="iso-8859-1"?>
<!-- Generator: Adobe Illustrator 19.0.0, SVG Export Plug-In . SVG Version: 6.00 Build 0)  -->
<svg version="1.1" id="Capa_1" xmlns="http://www.w3.org/2000/svg" xmlns:xlink="http://www.w3.org/1999/xlink" x="0px" y="0px"
	 viewBox="0 0 512 512" style="enable-background:new 0 0 512 512;" xml:space="preserve">
<g>
	<polygon style="fill:#FFCC67;" points="86.448,210.64 0,254.576 86.448,298.512 	"/>
	<polygon style="fill:#FFCC67;" points="425.552,210.64 425.552,298.512 512,254.576 	"/>
	<polygon style="fill:#FFCC67;" points="134.416,118.08 38.304,105.184 84.512,190.432 	"/>
	<polygon style="fill:#FFCC67;" points="473.696,105.184 377.584,118.08 427.488,190.432 	"/>
	<polygon style="fill:#FFCC67;" points="344.8,12.88 271.584,76.464 353.024,109.504 	"/>
	<polygon style="fill:#FFCC67;" points="167.2,12.88 158.976,109.504 240.416,76.464 	"/>
	<polygon style="fill:#FFCC67;" points="84.512,321.568 38.304,406.816 134.416,393.92 	"/>
	<polygon style="fill:#FFCC67;" points="427.488,321.568 377.584,393.92 473.696,406.816 	"/>
	<polygon style="fill:#FFCC67;" points="271.584,435.536 344.8,499.12 353.024,402.496 	"/>
	<polygon style="fill:#FFCC67;" points="158.976,402.496 167.2,499.12 240.416,435.536 	"/>
	<path style="fill:#FFCC67;" d="M269.264,190v16h-152.32c-5.68,15.632-8.944,32.416-8.944,50
		c0,80.912,65.584,146.496,146.496,146.496c57.136,0,106.512-32.784,130.656-80.496H242.688v-16h149.344
		c5.68-15.632,8.944-32.416,8.944-50c0-80.912-65.584-146.496-146.496-146.496c-57.136,0-106.512,32.784-130.656,80.496H269.264z"/>
</g>
<g>
</g>
<g>
</g>
<g>
</g>
<g>
</g>
<g>
</g>
<g>
</g>
<g>
</g>
<g>
</g>
<g>
</g>
<g>
</g>
<g>
</g>
<g>
</g>
<g>
</g>
<g>
</g>
<g>
</g>
</svg>
